<svg width="90" height="108" viewBox="0 0 90 108" fill="none" xmlns="http://www.w3.org/2000/svg">
<mask id="path-1-inside-1_486_13" fill="white">
<path fill-rule="evenodd" clip-rule="evenodd" d="M0 74V104V108H4H86H90V104V74H86V104H4V74H0Z"/>
</mask>
<path d="M0 74V68H-6V74H0ZM0 108H-6V114H0V108ZM90 108V114H96V108H90ZM90 74H96V68H90V74ZM86 74V68H80V74H86ZM86 104V110H92V104H86ZM4 104H-2V110H4V104ZM4 74H10V68H4V74ZM-6 74V104H6V74H-6ZM-6 104V108H6V104H-6ZM0 114H4V102H0V114ZM4 114H86V102H4V114ZM86 114H90V102H86V114ZM96 108V104H84V108H96ZM96 104V74H84V104H96ZM90 68H86V80H90V68ZM92 104V74H80V104H92ZM4 110H86V98H4V110ZM-2 74V104H10V74H-2ZM4 68H0V80H4V68Z" fill="#3C5FA6" mask="url(#path-1-inside-1_486_13)"/>
<path d="M45 3L45 66" stroke="#3C5FA6" stroke-width="6" stroke-linecap="round"/>
<path d="M26.2424 63.7576C25.0708 62.586 23.1713 62.586 21.9998 63.7576C20.8282 64.9292 20.8282 66.8287 21.9998 68.0002L26.2424 63.7576ZM21.9998 68.0002L44.9998 91.0002L49.2424 86.7576L26.2424 63.7576L21.9998 68.0002Z" fill="#3C5FA6"/>
<path d="M68.0002 68.0002C69.1718 66.8287 69.1718 64.9292 68.0002 63.7576C66.8287 62.586 64.9292 62.586 63.7576 63.7576L68.0002 68.0002ZM45.0002 91.0002L68.0002 68.0002L63.7576 63.7576L40.7576 86.7576L45.0002 91.0002Z" fill="#3C5FA6"/>
</svg>
